<?xml version="1.0" encoding="utf-8"?>
<!-- Generator: Adobe Illustrator 23.0.3, SVG Export Plug-In . SVG Version: 6.00 Build 0)  -->
<svg version="1.1" id="Layer_1" xmlns="http://www.w3.org/2000/svg" xmlns:xlink="http://www.w3.org/1999/xlink" x="0px" y="0px"
	 viewBox="0 0 328.77 505.74" style="enable-background:new 0 0 328.77 505.74;" xml:space="preserve">
<style type="text/css">
	.st0{fill:#395F68;}
	.st1{fill:#FFFFFF;}
	.st2{fill:#FAAE1C;}
	.st3{fill:#FAAE1C;stroke:#676767;stroke-miterlimit:10;}
</style>
<path class="st0" d="M309.11,505.99H20.7c-11.01,0-19.93-8.92-19.93-19.93V77.56c0-11.01,8.92-19.93,19.93-19.93h288.41
	c11.01,0,19.93,8.92,19.93,19.93v408.49C329.04,497.06,320.11,505.99,309.11,505.99z"/>
<path class="st1" d="M302.3,482.63H27.51c-2.9,0-5.25-2.35-5.25-5.25V98.24c0-2.9,2.35-5.25,5.25-5.25H302.3
	c2.9,0,5.25,2.35,5.25,5.25v379.14C307.54,480.28,305.19,482.63,302.3,482.63z"/>
<path class="st0" d="M255.51,46.49h-48.79v-6.97C206.72,18.25,189.47,1,168.2,1h-0.78c-21.28,0-38.52,17.25-38.52,38.52v6.97H80.1
	c-2.52,0-4.57,2.05-4.57,4.57v49.23c0,0,0,0,0,0v0.96c0,0.3,0.13,0.55,0.33,0.74c0.67,1.68,2.31,2.87,4.23,2.87h175.4
	c1.89,0,3.51-1.15,4.21-2.79c0.21-0.15,0.36-0.37,0.36-0.64v-1.14v-1.41v-2.02v-7.72V51.06C260.08,48.54,258.03,46.49,255.51,46.49z
	 M167.81,16.16c7.11,0,12.87,5.76,12.87,12.87c0,7.11-5.76,12.88-12.87,12.88c-7.11,0-12.87-5.76-12.87-12.88
	C154.93,21.93,160.7,16.16,167.81,16.16z"/>
<path class="st2" d="M164.9,220.56c17.15-17.2,34.3-34.4,51.45-51.6c-4.77,21.7-9.55,43.41-14.32,65.11
	c16.69-1.64,33.39-3.27,50.08-4.91c-10.11,13.04-20.22,26.08-30.33,39.13l56.88,30.09l-63.74,8.82
	c16.17,23.26,32.34,46.52,48.51,69.78c-26.26-14.8-52.52-29.59-78.78-44.39l-19.75,61.24l-19.75-61.24
	c-24.35,16.58-48.7,33.17-73.04,49.75c14.26-25.05,28.52-50.1,42.78-75.15l-63.74-8.82l56.88-30.09
	c-16.34-19.8-32.69-39.59-49.03-59.39c22.93,8.39,45.86,16.78,68.78,25.18l-2.38-64.31L164.9,220.56z"/>
<path class="st0" d="M164.9,403.77l-21.4-66.36l-80.54,54.86l47.06-82.66l-68.64-9.5l61.92-32.76l-53.8-65.17l75.07,27.47
	L122,160.45l43.19,55.52l56.38-56.55l-15.66,71.22l52.94-5.19l-32.44,41.85l62.03,32.81l-68.18,9.44l53.27,76.63l-87.12-49.09
	L164.9,403.77z M146.8,327.79l18.1,56.13l18-55.81l70.44,39.69l-43.75-62.94l59.3-8.21l-51.74-27.37l28.22-36.4l-47.22,4.63
	l12.98-59l-46.51,46.65l-35.83-46.07l2.2,59.4l-62.5-22.88l44.26,53.61l-51.84,27.42l58.84,8.14l-38.5,67.63L146.8,327.79z"/>
<path class="st3" d="M181.18,132.61"/>
</svg>
