<?xml version="1.0" encoding="utf-8"?>
<!-- Generator: Adobe Illustrator 23.0.3, SVG Export Plug-In . SVG Version: 6.00 Build 0)  -->
<svg version="1.1" id="Layer_1" xmlns="http://www.w3.org/2000/svg" xmlns:xlink="http://www.w3.org/1999/xlink" x="0px" y="0px"
	 viewBox="0 0 328.77 505.74" style="enable-background:new 0 0 328.77 505.74;" xml:space="preserve">
<style type="text/css">
	.st0{fill:#395F68;}
	.st1{fill:#FFFFFF;}
</style>
<path class="st0" d="M308.8,505.74H19.96C8.94,505.74,0,496.8,0,485.78V76.68c0-11.03,8.94-19.96,19.96-19.96H308.8
	c11.03,0,19.96,8.94,19.96,19.96v409.1C328.77,496.8,319.83,505.74,308.8,505.74z"/>
<path class="st1" d="M301.98,482.35H26.78c-2.9,0-5.25-2.35-5.25-5.25V97.39c0-2.9,2.35-5.25,5.25-5.25h275.2
	c2.9,0,5.25,2.35,5.25,5.25V477.1C307.24,480,304.89,482.35,301.98,482.35z"/>
<g>
	<path class="st0" d="M255.13,45.56h-48.86v-6.98C206.26,17.27,188.99,0,167.68,0h-0.78c-21.31,0-38.58,17.27-38.58,38.58v6.98
		H79.46c-2.53,0-4.58,2.05-4.58,4.58v49.3c0,2.53,2.05,4.58,4.58,4.58h175.67c2.53,0,4.58-2.05,4.58-4.58v-49.3
		C259.7,47.61,257.65,45.56,255.13,45.56z M167.29,40.97c-7.12,0-12.89-5.77-12.89-12.89c0-7.12,5.77-12.89,12.89-12.89
		c7.12,0,12.89,5.77,12.89,12.89C180.19,35.2,174.41,40.97,167.29,40.97z"/>
	<g>
		<rect x="74.89" y="88.27" class="st0" width="184.82" height="7.74"/>
		<path class="st0" d="M258.86,101.42H75.91c-0.56,0-1.02-0.46-1.02-1.02v-2.38H259.7v2.56
			C259.7,101.04,259.32,101.42,258.86,101.42z"/>
	</g>
</g>
<g id="XMLID_7_">
	
		<ellipse id="XMLID_9_" transform="matrix(0.1554 -0.9879 0.9879 0.1554 -77.5622 352.3932)" class="st0" cx="167.29" cy="221.55" rx="50.06" ry="50.06"/>
	<path id="XMLID_8_" class="st0" d="M62.81,393.51L62.81,393.51c0-52.89,42.88-95.77,95.77-95.77H176
		c52.89,0,95.77,42.88,95.77,95.77l0,0"/>
</g>
</svg>
