<?xml version="1.0" encoding="utf-8"?>
<!-- Generator: Adobe Illustrator 23.0.3, SVG Export Plug-In . SVG Version: 6.00 Build 0)  -->
<svg version="1.1" id="Layer_1" xmlns="http://www.w3.org/2000/svg" xmlns:xlink="http://www.w3.org/1999/xlink" x="0px" y="0px"
	 viewBox="0 0 328.77 505.74" style="enable-background:new 0 0 328.77 505.74;" xml:space="preserve">
<style type="text/css">
	.st0{fill:#395F68;}
	.st1{fill:#FFFFFF;}
</style>
<path class="st0" d="M308.52,505.74H20.24c-11,0-19.93-8.92-19.93-19.93V77.5c0-11,8.92-19.93,19.93-19.93h288.28
	c11,0,19.93,8.92,19.93,19.93v408.31C328.45,496.82,319.53,505.74,308.52,505.74z"/>
<path class="st1" d="M301.72,482.4H27.05c-2.9,0-5.24-2.35-5.24-5.24V98.18c0-2.9,2.35-5.24,5.24-5.24h274.67
	c2.9,0,5.24,2.35,5.24,5.24v378.98C306.96,480.05,304.61,482.4,301.72,482.4z"/>
<path class="st0" d="M254.95,46.45h-48.77v-6.97c0-21.27-17.24-38.5-38.5-38.5h-0.78c-21.27,0-38.5,17.24-38.5,38.5v6.97H79.62
	c-2.52,0-4.57,2.04-4.57,4.57v49.21c0,0,0,0,0,0v0.96c0,0.3,0.13,0.56,0.34,0.75c0.68,1.67,2.31,2.86,4.23,2.86h175.33
	c1.87,0,3.48-1.13,4.18-2.74c0.23-0.15,0.39-0.4,0.39-0.69v-1.14v-1.41V96.8v-7.72V51.02C259.52,48.49,257.47,46.45,254.95,46.45z
	 M167.29,16.14c7.11,0,12.87,5.76,12.87,12.87c0,7.11-5.76,12.87-12.87,12.87c-7.11,0-12.87-5.76-12.87-12.87
	C154.42,21.9,160.18,16.14,167.29,16.14z"/>
<g>
	<g>
		<path class="st0" d="M167.29,390.5c-4.85,0-9.85-0.35-14.86-1.03c-1.13-0.15-2.09-0.93-2.48-2
			c-6.31-17.33-14.08-25.07-25.19-25.07c-5.69,0-12.49,1.91-20.79,5.83c-0.42,0.2-0.87,0.3-1.32,0.3c-0.67,0-1.33-0.22-1.89-0.64
			c-7.52-5.79-14.28-12.55-20.08-20.09c-0.71-0.92-0.84-2.16-0.35-3.2c5.88-12.45,7.27-21.53,4.38-28.55
			c-2.92-7.09-10.42-12.63-23.62-17.44c-1.08-0.39-1.85-1.35-2-2.48c-0.69-4.98-1.04-9.98-1.04-14.86c0-4.88,0.35-9.88,1.04-14.86
			c0.16-1.13,0.93-2.09,2-2.48c13.2-4.81,20.7-10.35,23.62-17.44c2.89-7.03,1.5-16.1-4.38-28.55c-0.5-1.05-0.36-2.28,0.35-3.2
			c5.79-7.52,12.55-14.28,20.08-20.08c0.55-0.43,1.22-0.64,1.89-0.64c0.45,0,0.9,0.1,1.32,0.3c8.31,3.92,15.11,5.83,20.79,5.83
			c11.12,0,18.88-7.73,25.19-25.07c0.39-1.08,1.35-1.85,2.49-2.01c5.06-0.68,10.05-1.03,14.86-1.03s9.8,0.35,14.86,1.03
			c1.14,0.16,2.1,0.93,2.49,2.01c6.32,17.34,14.08,25.07,25.2,25.07c5.69,0,12.49-1.91,20.79-5.83c0.42-0.2,0.87-0.3,1.32-0.3
			c0.67,0,1.33,0.22,1.88,0.64c7.54,5.8,14.3,12.56,20.08,20.08c0.71,0.92,0.84,2.16,0.35,3.2c-5.88,12.45-7.27,21.53-4.38,28.55
			c2.92,7.09,10.42,12.63,23.63,17.44c1.08,0.39,1.85,1.35,2,2.48c0.69,5.01,1.03,10.01,1.03,14.86c0,4.85-0.35,9.85-1.03,14.86
			c-0.16,1.13-0.93,2.09-2,2.48c-13.2,4.81-20.71,10.35-23.63,17.44c-2.89,7.03-1.5,16.1,4.38,28.55c0.5,1.05,0.36,2.28-0.35,3.2
			c-5.79,7.53-12.55,14.29-20.08,20.09c-0.55,0.43-1.22,0.64-1.88,0.64c-0.45,0-0.9-0.1-1.32-0.3c-8.31-3.92-15.11-5.83-20.79-5.83
			c-11.11,0-18.88,7.73-25.19,25.07c-0.39,1.08-1.35,1.85-2.48,2C177.14,390.16,172.14,390.5,167.29,390.5z M167.29,241.32
			c-22.02,0-39.94,17.91-39.94,39.94c0,22.02,17.92,39.94,39.94,39.94c22.02,0,39.93-17.92,39.93-39.94
			C207.22,259.24,189.31,241.32,167.29,241.32z"/>
		<path class="st0" d="M167.29,175.1c4.9,0,9.72,0.36,14.45,1c6.69,18.38,15.26,27.11,28.1,27.11c6.26,0,13.54-2.08,22.11-6.12
			c7.32,5.64,13.89,12.2,19.52,19.52c-12.34,26.13-6.38,40.25,20.98,50.21c0.64,4.72,1,9.53,1,14.44c0,4.9-0.36,9.72-1,14.44
			c-27.36,9.96-33.32,24.08-20.98,50.21c-5.63,7.32-12.2,13.89-19.52,19.52c-8.57-4.05-15.85-6.12-22.11-6.12
			c-12.83,0-21.4,8.72-28.1,27.1c-4.72,0.64-9.54,1-14.45,1c-4.9,0-9.72-0.36-14.44-1c-6.69-18.38-15.26-27.1-28.09-27.1
			c-6.27,0-13.54,2.08-22.11,6.12c-7.32-5.64-13.89-12.21-19.52-19.52c12.33-26.13,6.37-40.25-20.97-50.21
			c-0.65-4.72-1.01-9.54-1.01-14.44c0-4.9,0.35-9.72,1.01-14.44c27.35-9.97,33.3-24.08,20.97-50.21
			c5.64-7.32,12.2-13.88,19.52-19.52c8.57,4.05,15.85,6.12,22.11,6.12c12.83,0,21.41-8.72,28.1-27.11
			C157.57,175.47,162.39,175.1,167.29,175.1 M167.29,324.29c23.76,0,43.02-19.27,43.02-43.03c0-23.76-19.26-43.03-43.02-43.03
			c-23.76,0-43.03,19.26-43.03,43.03C124.26,305.02,143.53,324.29,167.29,324.29 M167.29,168.92c-4.94,0-10.08,0.35-15.27,1.06
			c-2.28,0.31-4.2,1.85-4.98,4.01c-7.39,20.3-15.41,23.04-22.29,23.04c-5.22,0-11.59-1.81-19.47-5.53c-0.84-0.4-1.74-0.59-2.64-0.59
			c-1.34,0-2.67,0.43-3.77,1.28c-7.75,5.96-14.69,12.91-20.65,20.65c-1.41,1.84-1.68,4.31-0.69,6.41
			c5.4,11.45,6.81,19.98,4.32,26.06c-2.53,6.14-9.66,11.28-21.82,15.71c-2.15,0.79-3.69,2.69-4.01,4.96
			c-0.71,5.12-1.06,10.26-1.06,15.28c0,5.03,0.36,10.17,1.06,15.29c0.31,2.27,1.85,4.18,4.01,4.96
			c12.15,4.42,19.29,9.56,21.81,15.71c2.5,6.08,1.09,14.6-4.31,26.06c-0.99,2.1-0.72,4.57,0.69,6.41
			c5.97,7.75,12.91,14.7,20.65,20.65c1.1,0.85,2.43,1.28,3.77,1.28c0.9,0,1.8-0.19,2.64-0.59c7.88-3.72,14.26-5.53,19.47-5.53
			c6.88,0,14.9,2.74,22.29,23.03c0.79,2.16,2.7,3.7,4.97,4.01c5.15,0.7,10.29,1.06,15.28,1.06c4.99,0,10.13-0.36,15.28-1.06
			c2.27-0.31,4.19-1.86,4.97-4.01c7.39-20.29,15.42-23.03,22.29-23.03c5.22,0,11.59,1.81,19.47,5.53c0.84,0.4,1.74,0.59,2.64,0.59
			c1.34,0,2.67-0.43,3.77-1.28c7.75-5.96,14.69-12.91,20.65-20.65c1.41-1.84,1.68-4.31,0.69-6.41c-5.41-11.45-6.82-19.97-4.32-26.05
			c2.53-6.15,9.67-11.28,21.82-15.71c2.15-0.79,3.7-2.7,4.01-4.97c0.7-5.15,1.06-10.29,1.06-15.28c0-4.99-0.35-10.13-1.06-15.27
			c-0.31-2.27-1.86-4.19-4.01-4.97c-12.16-4.43-19.3-9.56-21.82-15.71c-2.5-6.08-1.09-14.6,4.32-26.06c0.99-2.1,0.72-4.57-0.69-6.41
			c-5.95-7.73-12.9-14.68-20.65-20.65c-1.1-0.85-2.43-1.28-3.77-1.28c-0.9,0-1.8,0.19-2.64,0.59c-7.88,3.72-14.25,5.53-19.47,5.53
			c-6.88,0-14.9-2.74-22.29-23.04c-0.79-2.16-2.7-3.7-4.98-4.01C177.36,169.28,172.23,168.92,167.29,168.92L167.29,168.92z
			 M167.29,318.11c-20.32,0-36.85-16.53-36.85-36.85c0-20.32,16.53-36.85,36.85-36.85c20.31,0,36.84,16.53,36.84,36.85
			C204.13,301.58,187.6,318.11,167.29,318.11L167.29,318.11z"/>
	</g>
	<path class="st0" d="M167.29,339.42c-32.07,0-58.16-26.09-58.16-58.16c0-32.07,26.09-58.16,58.16-58.16
		c32.07,0,58.15,26.09,58.15,58.16C225.45,313.33,199.36,339.42,167.29,339.42z M167.29,241.32c-22.02,0-39.94,17.91-39.94,39.94
		c0,22.02,17.92,39.94,39.94,39.94c22.02,0,39.93-17.92,39.93-39.94C207.22,259.24,189.31,241.32,167.29,241.32z"/>
	<path class="st1" d="M167.29,226.19c30.41,0,55.06,24.65,55.06,55.07c0,30.41-24.65,55.07-55.06,55.07
		c-30.42,0-55.07-24.66-55.07-55.07C112.22,250.84,136.87,226.19,167.29,226.19 M167.29,324.29c23.76,0,43.02-19.27,43.02-43.03
		c0-23.76-19.26-43.03-43.02-43.03c-23.76,0-43.03,19.26-43.03,43.03C124.26,305.02,143.53,324.29,167.29,324.29 M167.29,220.01
		c-33.77,0-61.25,27.48-61.25,61.25c0,33.78,27.48,61.25,61.25,61.25c33.77,0,61.24-27.48,61.24-61.25
		C228.54,247.48,201.06,220.01,167.29,220.01L167.29,220.01z M167.29,318.11c-20.32,0-36.85-16.53-36.85-36.85
		c0-20.32,16.53-36.85,36.85-36.85c20.31,0,36.84,16.53,36.84,36.85C204.13,301.58,187.6,318.11,167.29,318.11L167.29,318.11z"/>
</g>
</svg>
