<?xml version="1.0" encoding="utf-8"?>
<!-- Generator: Adobe Illustrator 23.0.3, SVG Export Plug-In . SVG Version: 6.00 Build 0)  -->
<svg version="1.1" id="Layer_1" xmlns="http://www.w3.org/2000/svg" xmlns:xlink="http://www.w3.org/1999/xlink" x="0px" y="0px"
	 viewBox="0 0 328.77 505.74" style="enable-background:new 0 0 328.77 505.74;" xml:space="preserve">
<style type="text/css">
	.st0{fill:#395F68;}
	.st1{fill:#FFFFFF;}
</style>
<path class="st0" d="M308.58,505.74H20.19c-11.01,0-19.93-8.92-19.93-19.93V77.34c0-11.01,8.92-19.93,19.93-19.93h288.39
	c11.01,0,19.93,8.92,19.93,19.93v408.47C328.51,496.82,319.59,505.74,308.58,505.74z"/>
<path class="st1" d="M301.77,482.39H27c-2.9,0-5.25-2.35-5.25-5.25V98.02c0-2.9,2.35-5.25,5.25-5.25h274.77
	c2.9,0,5.25,2.35,5.25,5.25v379.12C307.02,480.04,304.67,482.39,301.77,482.39z"/>
<path class="st0" d="M254.99,46.27H206.2V39.3c0-21.27-17.25-38.52-38.52-38.52h-0.78c-21.27,0-38.52,17.25-38.52,38.52v6.97H79.59
	c-2.52,0-4.57,2.05-4.57,4.57v49.23c0,0,0,0,0,0v0.96c0,0.3,0.13,0.56,0.34,0.75c0.68,1.68,2.31,2.86,4.23,2.86h175.39
	c1.87,0,3.48-1.13,4.18-2.74c0.23-0.15,0.39-0.4,0.39-0.69v-1.14v-1.42v-2.01v-7.72V50.84C259.55,48.32,257.51,46.27,254.99,46.27z
	 M167.29,15.95c7.11,0,12.87,5.76,12.87,12.87c0,7.11-5.76,12.87-12.87,12.87c-7.11,0-12.87-5.76-12.87-12.87
	C154.41,21.71,160.18,15.95,167.29,15.95z"/>
<g>
	<path class="st0" d="M55.68,280.22c0,62.59,50.74,113.33,113.33,113.33c62.59,0,113.33-50.74,113.33-113.33
		c0-62.59-50.74-113.33-113.33-113.33C106.42,166.9,55.68,217.63,55.68,280.22z M271.14,280.22c0,56.41-45.73,102.14-102.14,102.14
		c-56.41,0-102.14-45.73-102.14-102.14c0-56.41,45.73-102.14,102.14-102.14C225.42,178.08,271.14,223.81,271.14,280.22z"/>
	<path class="st1" d="M82.79,280.22c0,47.54,38.68,86.22,86.21,86.22c47.54,0,86.22-38.68,86.22-86.22
		c0-47.54-38.67-86.22-86.22-86.22C121.47,194.01,82.79,232.68,82.79,280.22z M173.99,228.44v54.55l42.28,43.89
		c2.43,2.52,2.36,6.54-0.17,8.97c-2.53,2.43-6.54,2.36-8.97-0.17l-44.06-45.73c-1.14-1.19-1.77-2.76-1.77-4.4v-57.11
		c0-3.5,2.84-6.34,6.34-6.34C171.15,222.1,173.99,224.94,173.99,228.44z"/>
	<path class="st0" d="M66.87,280.22c0,56.41,45.73,102.14,102.14,102.14c56.41,0,102.14-45.73,102.14-102.14
		c0-56.41-45.73-102.14-102.14-102.14C112.6,178.08,66.87,223.81,66.87,280.22z M255.22,280.22c0,47.54-38.67,86.22-86.22,86.22
		c-47.54,0-86.21-38.68-86.21-86.22c0-47.54,38.68-86.22,86.21-86.22C216.55,194.01,255.22,232.68,255.22,280.22z"/>
	<path class="st0" d="M167.65,222.1c-3.5,0-6.34,2.84-6.34,6.34v57.11c0,1.64,0.63,3.21,1.77,4.4l44.06,45.73
		c2.43,2.53,6.44,2.6,8.97,0.17c2.52-2.43,2.6-6.45,0.17-8.97l-42.28-43.89v-54.55C173.99,224.94,171.15,222.1,167.65,222.1z"/>
</g>
</svg>
