<?xml version="1.0" encoding="utf-8"?>
<!-- Generator: Adobe Illustrator 23.0.3, SVG Export Plug-In . SVG Version: 6.00 Build 0)  -->
<svg version="1.1" id="Layer_1" xmlns="http://www.w3.org/2000/svg" xmlns:xlink="http://www.w3.org/1999/xlink" x="0px" y="0px"
	 viewBox="0 0 328.77 505.74" style="enable-background:new 0 0 328.77 505.74;" xml:space="preserve">
<style type="text/css">
	.st0{fill:#395F68;}
	.st1{fill:#FFFFFF;}
	.st2{fill:url(#SVGID_1_);}
	.st3{fill:url(#SVGID_2_);}
	.st4{fill:url(#SVGID_3_);}
	.st5{fill:#E0E0E0;}
</style>
<path class="st0" d="M308.46,505.83H20.47c-10.99,0-19.91-8.91-19.91-19.91V78.02c0-10.99,8.91-19.91,19.91-19.91h287.99
	c10.99,0,19.91,8.91,19.91,19.91v407.9C328.37,496.91,319.46,505.83,308.46,505.83z"/>
<path class="st1" d="M301.66,482.51H27.27c-2.89,0-5.24-2.35-5.24-5.24V98.67c0-2.89,2.35-5.24,5.24-5.24h274.39
	c2.89,0,5.24,2.35,5.24,5.24v378.6C306.9,480.16,304.56,482.51,301.66,482.51z"/>
<path class="st0" d="M254.94,46.99h-48.72v-6.96c0-21.24-17.22-38.47-38.47-38.47h-0.78c-21.24,0-38.47,17.22-38.47,38.47v6.96
	H79.79c-2.52,0-4.56,2.04-4.56,4.56v49.16c0,0,0,0,0,0v0.96c0,0.3,0.13,0.56,0.34,0.75c0.68,1.67,2.31,2.86,4.23,2.86h175.15
	c1.87,0,3.47-1.13,4.18-2.74c0.23-0.15,0.39-0.4,0.39-0.69v-1.14V99.3v-2.01v-7.71V51.55C259.5,49.03,257.46,46.99,254.94,46.99z
	 M167.37,16.71c7.1,0,12.86,5.76,12.86,12.86c0,7.1-5.76,12.86-12.86,12.86c-7.1,0-12.86-5.76-12.86-12.86
	C154.51,22.46,160.27,16.71,167.37,16.71z"/>
<g>
	<path class="st1" d="M270.12,347.64c0,0-21.08-24.04-45.61-51.5c-6.63-7.42-6.69-18.78-0.14-26.28
		c25.4-29.05,45.75-52.51,45.75-52.51l0.46-0.5c8.53-9.29,9.37-23.82,1.43-34.14c-8.75-11.38-24.87-13.35-35.99-4.4
		c0,0-23.45,21.24-51.53,46.71c-7.51,6.81-18.87,6.52-26.07-0.63c-28.85-28.62-69.63-62.38-88.28-43.29
		c-25.53,26.12,6.75,54.88,40.32,78.74c10.19,7.24,19.45,24.05,10.18,32.49c-12.53,11.41-25.42,25.67-26.31,26.58
		c-23.94,24.5-39.24,48.34-24.19,64.98c18.49,20.45,51.32-2.83,67.16-20c6.48-7.03,15.26-16.78,26.53-29.53
		c7.74-8.75,23.25-6.48,30.74,2.49c20.11,24.1,41.46,49.82,41.46,49.82c11.13,8.95,27.24,6.99,35.99-4.4
		c7.94-10.32,7.09-24.85-1.43-34.14L270.12,347.64z"/>
	<radialGradient id="SVGID_1_" cx="145.2413" cy="321.5916" r="175.823" gradientUnits="userSpaceOnUse">
		<stop  offset="0" style="stop-color:#CC765C"/>
		<stop  offset="0.0584" style="stop-color:#CB7359"/>
		<stop  offset="0.3548" style="stop-color:#C7684C"/>
		<stop  offset="0.6632" style="stop-color:#C46244"/>
		<stop  offset="1" style="stop-color:#C45F41"/>
	</radialGradient>
	<path class="st2" d="M268.26,341.83c0,0-21.08-23.5-45.61-50.34c-6.63-7.25-6.69-18.36-0.14-25.68
		c25.4-28.39,45.75-51.32,45.75-51.32l0.46-0.49c8.53-9.08,9.37-23.28,1.43-33.37c-8.75-11.13-24.87-13.05-35.99-4.3
		c0,0-23.45,20.76-51.53,45.65c-7.51,6.66-18.87,6.37-26.07-0.61c-28.85-27.98-69.63-60.97-88.28-42.32
		c-25.53,25.53,6.75,53.64,40.32,76.96c10.19,7.08,19.45,23.51,10.18,31.75c-12.53,11.16-25.42,25.09-26.31,25.98
		c-23.94,23.94-39.24,47.24-24.19,63.52c18.49,19.99,51.32-2.77,67.16-19.55c6.48-6.87,15.26-16.4,26.53-28.87
		c7.74-8.55,23.25-6.34,30.74,2.44c20.11,23.56,41.46,48.7,41.46,48.7c11.13,8.75,27.24,6.83,35.99-4.3
		c7.94-10.09,7.09-24.28-1.43-33.37L268.26,341.83z"/>
	<g>
		<radialGradient id="SVGID_2_" cx="87.0357" cy="344.5917" r="55.6941" gradientUnits="userSpaceOnUse">
			<stop  offset="0" style="stop-color:#CC765C"/>
			<stop  offset="0.0584" style="stop-color:#CB7359"/>
			<stop  offset="0.3548" style="stop-color:#C7684C"/>
			<stop  offset="0.6632" style="stop-color:#C46244"/>
			<stop  offset="1" style="stop-color:#C45F41"/>
		</radialGradient>
		<path class="st3" d="M94.33,324.91c0.89-0.89,13.78-14.82,26.31-25.98c4.92-4.38,4.62-11.08,1.72-17.45
			c-0.45,2.36-1.59,4.51-3.58,6.29c-12.53,11.16-25.42,25.09-26.31,25.98c-21.17,21.17-35.56,41.84-28.21,57.59
			C65.47,357.55,77.85,341.38,94.33,324.91z"/>
		<radialGradient id="SVGID_3_" cx="241.837" cy="339.2341" r="48.8603" gradientUnits="userSpaceOnUse">
			<stop  offset="0" style="stop-color:#CC765C"/>
			<stop  offset="0.0584" style="stop-color:#CB7359"/>
			<stop  offset="0.3548" style="stop-color:#C7684C"/>
			<stop  offset="0.6632" style="stop-color:#C46244"/>
			<stop  offset="1" style="stop-color:#C45F41"/>
		</radialGradient>
		<path class="st4" d="M268.26,341.83c0,0-21.08-23.5-45.61-50.34c-1.21-1.32-2.19-2.77-2.96-4.31c-0.73,5.45,0.87,11.14,4.82,15.47
			c24.53,26.84,45.61,50.34,45.61,50.34l0.46,0.49c2.18,2.32,3.85,4.98,5,7.81c0.38-6.85-1.97-13.75-6.86-18.97L268.26,341.83z"/>
		<path class="st5" d="M70.14,190.21c18.66-18.66,59.44,25.5,88.28,53.48c7.2,6.99,18.56,7.27,26.07,0.61
			c28.09-24.89,51.53-56.81,51.53-56.81c11.13-8.75,27.24-6.83,35.99,4.3c1.51,1.92,2.69,3.98,3.58,6.13
			c0.34-6.02-1.42-12.18-5.44-17.29c-8.75-11.13-24.87-13.05-35.99-4.3c0,0-23.45,20.76-51.53,45.65
			c-7.51,6.66-18.87,6.37-26.07-0.61c-28.85-27.98-69.63-60.97-88.28-42.32c-9.61,9.61-11.02,19.59-7.26,29.54
			C61.35,202.39,64.13,196.23,70.14,190.21z"/>
	</g>
</g>
</svg>
