<?xml version="1.0" encoding="utf-8"?>
<!-- Generator: Adobe Illustrator 23.0.3, SVG Export Plug-In . SVG Version: 6.00 Build 0)  -->
<svg version="1.1" id="Layer_1" xmlns="http://www.w3.org/2000/svg" xmlns:xlink="http://www.w3.org/1999/xlink" x="0px" y="0px"
	 viewBox="0 0 328.77 505.74" style="enable-background:new 0 0 328.77 505.74;" xml:space="preserve">
<style type="text/css">
	.st0{fill:#FAAE1C;stroke:#676767;stroke-miterlimit:10;}
	.st1{fill:#395F68;}
	.st2{fill:#FFFFFF;}
	.st3{fill:url(#SVGID_1_);}
	.st4{fill:url(#SVGID_2_);}
	.st5{fill:#E0E0E0;}
</style>
<path class="st0" d="M181.22,132.29"/>
<path class="st1" d="M309.14,506.08H20.3c-11.03,0-19.96-8.94-19.96-19.96V77.01c0-11.03,8.94-19.96,19.96-19.96h288.84
	c11.03,0,19.96,8.94,19.96,19.96v409.1C329.1,497.14,320.16,506.08,309.14,506.08z"/>
<path class="st2" d="M302.32,482.69H27.12c-2.9,0-5.25-2.35-5.25-5.25V97.73c0-2.9,2.35-5.25,5.25-5.25h275.2
	c2.9,0,5.25,2.35,5.25,5.25v379.71C307.57,480.34,305.22,482.69,302.32,482.69z"/>
<path class="st1" d="M255.46,45.9h-48.86v-6.98c0-21.31-17.27-38.58-38.58-38.58h-0.78c-21.31,0-38.58,17.27-38.58,38.58v6.98H79.79
	c-2.53,0-4.58,2.05-4.58,4.58v49.3c0,0,0,0,0,0v0.96c0,0.3,0.13,0.56,0.34,0.75c0.68,1.68,2.32,2.86,4.24,2.86h175.67
	c1.88,0,3.48-1.13,4.19-2.74c0.23-0.15,0.39-0.4,0.39-0.69v-1.14v-1.42v-2.02V88.6V50.47C260.03,47.95,257.99,45.9,255.46,45.9z
	 M167.63,15.52c7.12,0,12.89,5.77,12.89,12.89c0,7.12-5.77,12.89-12.89,12.89c-7.12,0-12.89-5.77-12.89-12.89
	C154.73,21.3,160.5,15.52,167.63,15.52z"/>
<g>
	<path class="st2" d="M281.07,143.53c0.02-0.27,0.01-0.54,0.01-0.81c0.02-0.77-0.01-1.55-0.09-2.32c-0.03-0.28-0.05-0.56-0.09-0.84
		c-0.14-0.99-0.34-1.96-0.64-2.93c-0.05-0.17-0.12-0.33-0.18-0.49c-0.28-0.83-0.62-1.64-1.01-2.43c-0.13-0.26-0.25-0.51-0.39-0.76
		c-0.51-0.93-1.07-1.83-1.75-2.69c-6.68-8.49-18.98-9.96-27.47-3.28c0,0-106.55,89.54-109.63,92.24l-41.96-37
		c-8.66-7.65-21.82-8.32-31.27-0.96c-0.89,0.69-1.69,1.45-2.46,2.23c-0.19,0.2-0.38,0.39-0.56,0.59c-0.72,0.78-1.39,1.59-1.99,2.44
		c-0.01,0.02-0.03,0.04-0.05,0.06c-0.62,0.88-1.15,1.81-1.64,2.75c-0.11,0.22-0.22,0.43-0.32,0.65c-0.45,0.94-0.86,1.9-1.19,2.88
		c0,0.01-0.01,0.02-0.01,0.03c-0.34,1.02-0.59,2.06-0.79,3.11c-0.04,0.2-0.07,0.4-0.11,0.61c-0.35,2.12-0.42,4.27-0.21,6.42
		c0.02,0.18,0.04,0.35,0.06,0.53c0.17,1.42,0.47,2.83,0.89,4.21c0.58,4.19,2.47,8.44,5.6,12.46l52.26,72.17
		c0.24,0.3,0.55,0.69,0.8,0.99c10.56,12.42,29.19,13.93,41.61,3.37L275.5,160.67l0.35-0.37c4.27-4.55,5.96-9.46,4.95-14.48
		C280.93,145.06,281.03,144.3,281.07,143.53z"/>
	<radialGradient id="SVGID_1_" cx="169.1353" cy="213.2874" r="101.7976" gradientUnits="userSpaceOnUse">
		<stop  offset="0" style="stop-color:#A0BA74"/>
		<stop  offset="8.919358e-03" style="stop-color:#A0BA73"/>
		<stop  offset="0.3211" style="stop-color:#96B365"/>
		<stop  offset="0.6454" style="stop-color:#91AF5C"/>
		<stop  offset="1" style="stop-color:#8FAE5A"/>
	</radialGradient>
	<path class="st3" d="M261.55,129.78c3.89,0,7.49,1.75,9.89,4.8c0.36,0.46,0.71,1.01,1.11,1.74c0.09,0.16,0.17,0.33,0.25,0.49
		c0.26,0.53,0.48,1.05,0.65,1.57c0.05,0.14,0.1,0.28,0.16,0.44c0.15,0.53,0.27,1.09,0.36,1.74c0.01,0.09,0.02,0.18,0.03,0.26
		l0.03,0.28c0.05,0.49,0.07,1,0.06,1.5c0,0.14,0,0.28,0,0.42l0,0.15c-0.03,0.46-0.09,0.95-0.18,1.43l-0.24,1.32l0.26,1.31
		c0.2,1,0.81,4.04-3.16,8.27l-0.35,0.37l-0.12,0.12l-0.11,0.13L153.6,291.76c-4,3.25-9.02,5.03-14.18,5.03
		c-6.63,0-12.88-2.89-17.17-7.94c-0.17-0.2-0.38-0.46-0.55-0.67l-52.18-72.05l-0.07-0.1l-0.07-0.1c-2.33-2.99-3.78-6.15-4.19-9.12
		l-0.08-0.55l-0.16-0.54c-0.3-0.97-0.51-1.98-0.63-3l-0.02-0.16c-0.01-0.08-0.02-0.15-0.03-0.23c-0.15-1.52-0.1-3.07,0.15-4.6
		c0.02-0.15,0.05-0.29,0.07-0.43c0.15-0.78,0.31-1.46,0.51-2.08l0.01-0.02l0.06-0.17c0.2-0.6,0.48-1.27,0.85-2.04
		c0.07-0.15,0.15-0.31,0.23-0.46c0.37-0.71,0.7-1.28,1.04-1.78l0.01-0.01l0.15-0.21c0.37-0.52,0.83-1.09,1.42-1.73
		c0.13-0.15,0.27-0.29,0.4-0.43c0.66-0.68,1.22-1.19,1.76-1.6c3.1-2.41,6.81-3.69,10.73-3.69c4.29,0,8.41,1.55,11.61,4.37l41.96,37
		l4.62,4.07l4.63-4.06c2.39-2.1,72.56-61.09,109.42-92.07C256.1,130.69,258.75,129.78,261.55,129.78 M261.55,122.78
		c-4.23,0-8.5,1.37-12.08,4.19c0,0-106.55,89.54-109.63,92.24l-41.96-37c-4.57-4.03-10.38-6.12-16.24-6.12
		c-5.26,0-10.56,1.68-15.03,5.17c-0.89,0.69-1.69,1.45-2.46,2.23c-0.19,0.2-0.38,0.39-0.56,0.59c-0.72,0.78-1.39,1.59-1.99,2.44
		c-0.01,0.02-0.03,0.04-0.05,0.06c-0.62,0.88-1.15,1.81-1.64,2.75c-0.11,0.22-0.22,0.43-0.32,0.65c-0.45,0.94-0.86,1.9-1.19,2.88
		c0,0.01-0.01,0.02-0.01,0.03c-0.34,1.02-0.59,2.06-0.79,3.11c-0.04,0.2-0.07,0.4-0.1,0.61c-0.35,2.12-0.42,4.27-0.21,6.42
		c0.02,0.18,0.04,0.35,0.06,0.53c0.17,1.42,0.47,2.83,0.89,4.21c0.58,4.19,2.47,8.44,5.6,12.46l52.26,72.17
		c0.24,0.3,0.55,0.69,0.8,0.99c5.84,6.87,14.15,10.4,22.5,10.4c6.76,0,13.55-2.31,19.1-7.03L275.5,160.67l0.35-0.37
		c4.27-4.55,5.96-9.46,4.95-14.48c0.14-0.76,0.23-1.52,0.28-2.29c0.02-0.27,0.01-0.54,0.01-0.81c0.02-0.77-0.01-1.55-0.09-2.32
		c-0.03-0.28-0.05-0.56-0.09-0.84c-0.14-0.99-0.34-1.96-0.64-2.93c-0.05-0.17-0.12-0.33-0.18-0.49c-0.28-0.83-0.62-1.64-1.01-2.43
		c-0.13-0.26-0.25-0.51-0.39-0.76c-0.51-0.93-1.07-1.83-1.75-2.69C273.08,125.34,267.35,122.78,261.55,122.78L261.55,122.78z"/>
</g>
<g>
	<path class="st2" d="M276.04,283.75c-6.68-8.49-18.98-9.96-27.47-3.28c0,0-106.55,89.54-109.63,92.24l-41.96-37
		c-8.66-7.65-21.82-8.32-31.27-0.96c-10.69,8.32-11.08,20.67-2.77,31.35l52.26,72.17c0.24,0.3,0.55,0.69,0.8,0.99
		c10.56,12.42,29.19,13.93,41.61,3.37l116.97-136.09l0.35-0.37C281.45,299.23,282.1,291.45,276.04,283.75z"/>
	<radialGradient id="SVGID_2_" cx="145.3568" cy="390.4297" r="174.8526" gradientUnits="userSpaceOnUse">
		<stop  offset="0" style="stop-color:#A0BA74"/>
		<stop  offset="8.919358e-03" style="stop-color:#A0BA73"/>
		<stop  offset="0.3211" style="stop-color:#96B365"/>
		<stop  offset="0.6454" style="stop-color:#91AF5C"/>
		<stop  offset="1" style="stop-color:#8FAE5A"/>
	</radialGradient>
	<path class="st4" d="M276.04,276.12c-6.68-8.49-18.98-9.96-27.47-3.28c0,0-106.55,89.54-109.63,92.24l-41.96-37
		c-8.66-7.65-21.82-8.32-31.27-0.96c-10.69,8.32-12.61,23.72-4.29,34.4l53.79,69.12c0.24,0.3,0.55,0.69,0.8,0.99
		c10.56,12.42,29.19,13.93,41.61,3.37l116.97-133.04l0.35-0.37C281.45,294.66,282.1,283.82,276.04,276.12z"/>
	<path class="st5" d="M65.71,339.33c9.45-7.36,22.61-6.69,31.27,0.96l33.83,38.8c2.8,3.21,7.68,3.53,10.87,0.7
		c23.13-20.49,106.89-94.75,106.89-94.75c8.49-6.68,20.79-5.21,27.47,3.28c1.45,1.85,2.51,3.88,3.21,5.99
		c1.97-6.01,1-12.86-3.21-18.2c-6.68-8.49-18.98-9.96-27.47-3.28c0,0-106.55,89.54-109.63,92.24l-41.96-37
		c-8.66-7.65-21.82-8.32-31.27-0.96c-7.96,6.19-11.04,16.31-8.67,25.49C58.33,347.52,61.24,342.8,65.71,339.33z"/>
</g>
</svg>
