<?xml version="1.0" encoding="utf-8"?>
<!-- Generator: Adobe Illustrator 23.0.3, SVG Export Plug-In . SVG Version: 6.00 Build 0)  -->
<svg version="1.1" id="Layer_1" xmlns="http://www.w3.org/2000/svg" xmlns:xlink="http://www.w3.org/1999/xlink" x="0px" y="0px"
	 viewBox="0 0 328.77 505.74" style="enable-background:new 0 0 328.77 505.74;" xml:space="preserve">
<style type="text/css">
	.st0{fill:#395F68;}
	.st1{fill:#FFFFFF;}
	.st2{fill:url(#SVGID_1_);}
	.st3{fill:#E0E0E0;}
	.st4{fill:url(#SVGID_2_);}
</style>
<path class="st0" d="M309.38,505.28H20.85c-11.01,0-19.94-8.93-19.94-19.94V76.67c0-11.01,8.93-19.94,19.94-19.94h288.53
	c11.01,0,19.94,8.93,19.94,19.94v408.66C329.32,496.35,320.39,505.28,309.38,505.28z"/>
<path class="st1" d="M302.57,481.92H27.66c-2.9,0-5.25-2.35-5.25-5.25V97.37c0-2.9,2.35-5.25,5.25-5.25h274.91
	c2.9,0,5.25,2.35,5.25,5.25v379.3C307.81,479.57,305.46,481.92,302.57,481.92z"/>
<g>
	<path class="st0" d="M255.76,45.59h-48.81v-6.97c0-21.28-17.25-38.54-38.54-38.54h-0.78c-21.28,0-38.54,17.25-38.54,38.54v6.97
		H80.28c-2.52,0-4.57,2.05-4.57,4.57v49.25c0,2.52,2.05,4.57,4.57,4.57h175.48c2.52,0,4.57-2.05,4.57-4.57V50.16
		C260.33,47.64,258.28,45.59,255.76,45.59z M168.02,41.01c-7.11,0-12.88-5.77-12.88-12.88c0-7.11,5.77-12.88,12.88-12.88
		c7.11,0,12.88,5.77,12.88,12.88C180.9,35.25,175.13,41.01,168.02,41.01z"/>
	<g>
		<rect x="75.71" y="88.25" class="st0" width="184.62" height="7.73"/>
		<path class="st0" d="M259.48,101.4H76.73c-0.56,0-1.02-0.46-1.02-1.02V98h184.62v2.55C260.33,101.02,259.95,101.4,259.48,101.4z"
			/>
	</g>
</g>
<g>
	<path class="st1" d="M277.22,137.48c-6.67-8.48-18.96-9.95-27.44-3.28c0,0-106.43,89.44-109.51,92.14l-41.91-36.96
		c-8.65-7.64-21.79-8.31-31.24-0.96c-10.67,8.31-11.07,20.64-2.76,31.32l52.21,72.09c0.24,0.3,0.55,0.69,0.8,0.99
		c10.55,12.41,29.16,13.92,41.56,3.37l116.85-135.95l0.35-0.37C282.63,152.94,283.27,145.17,277.22,137.48z"/>
	<radialGradient id="SVGID_1_" cx="146.6759" cy="244.0428" r="174.6647" gradientUnits="userSpaceOnUse">
		<stop  offset="0" style="stop-color:#A0BA74"/>
		<stop  offset="8.919358e-03" style="stop-color:#A0BA73"/>
		<stop  offset="0.3211" style="stop-color:#96B365"/>
		<stop  offset="0.6454" style="stop-color:#91AF5C"/>
		<stop  offset="1" style="stop-color:#8FAE5A"/>
	</radialGradient>
	<path class="st2" d="M277.22,129.86c-6.67-8.48-18.96-9.95-27.44-3.28c0,0-106.43,89.44-109.51,92.14l-41.91-36.96
		c-8.65-7.64-21.79-8.31-31.24-0.96c-10.67,8.31-12.59,23.69-4.29,34.37l53.73,69.04c0.24,0.3,0.55,0.69,0.8,0.99
		c10.55,12.41,29.16,13.92,41.56,3.37l116.85-132.9l0.35-0.37C282.63,148.37,283.27,137.55,277.22,129.86z"/>
	<path class="st3" d="M67.12,193c9.44-7.35,22.58-6.68,31.24,0.96l33.79,38.76c2.8,3.21,7.67,3.53,10.86,0.7
		c23.11-20.47,106.78-94.65,106.78-94.65c8.48-6.67,20.77-5.21,27.44,3.28c1.45,1.85,2.51,3.88,3.2,5.99c1.97-6,1-12.84-3.2-18.18
		c-6.67-8.48-18.96-9.95-27.44-3.28c0,0-106.43,89.44-109.51,92.14l-41.91-36.96c-8.65-7.64-21.79-8.31-31.24-0.96
		c-7.95,6.19-11.03,16.29-8.66,25.46C59.75,201.18,62.65,196.47,67.12,193z"/>
</g>
<g>
	<path class="st1" d="M276.32,283.19c-6.67-8.48-18.96-9.95-27.44-3.28c0,0-106.43,89.44-109.51,92.14L97.45,335.1
		c-8.65-7.64-21.79-8.31-31.24-0.96c-10.67,8.31-11.07,20.64-2.76,31.32l52.21,72.09c0.24,0.3,0.55,0.69,0.8,0.99
		c10.55,12.41,29.16,13.92,41.56,3.37l116.85-135.95l0.35-0.37C281.73,298.66,282.37,290.88,276.32,283.19z"/>
	<radialGradient id="SVGID_2_" cx="145.7739" cy="389.7551" r="174.6647" gradientUnits="userSpaceOnUse">
		<stop  offset="0" style="stop-color:#A0BA74"/>
		<stop  offset="8.919358e-03" style="stop-color:#A0BA73"/>
		<stop  offset="0.3211" style="stop-color:#96B365"/>
		<stop  offset="0.6454" style="stop-color:#91AF5C"/>
		<stop  offset="1" style="stop-color:#8FAE5A"/>
	</radialGradient>
	<path class="st4" d="M276.32,275.57c-6.67-8.48-18.96-9.95-27.44-3.28c0,0-106.43,89.44-109.51,92.14l-41.91-36.96
		c-8.65-7.64-21.79-8.31-31.24-0.96c-10.67,8.31-12.59,23.69-4.29,34.37l53.73,69.04c0.24,0.3,0.55,0.69,0.8,0.99
		c10.55,12.41,29.16,13.92,41.56,3.37l116.85-132.9l0.35-0.37C281.73,294.08,282.37,283.26,276.32,275.57z"/>
	<path class="st3" d="M66.21,338.71c9.44-7.35,22.58-6.68,31.24,0.96l33.79,38.76c2.8,3.21,7.67,3.53,10.86,0.7
		c23.11-20.47,106.78-94.65,106.78-94.65c8.48-6.67,20.77-5.21,27.44,3.28c1.45,1.85,2.51,3.88,3.2,5.99c1.97-6,1-12.84-3.2-18.18
		c-6.67-8.48-18.96-9.95-27.44-3.28c0,0-106.43,89.44-109.51,92.14l-41.91-36.96c-8.65-7.64-21.79-8.31-31.24-0.96
		c-7.95,6.19-11.03,16.29-8.66,25.46C58.84,346.9,61.75,342.18,66.21,338.71z"/>
</g>
</svg>
