<?xml version="1.0" encoding="utf-8"?>
<!-- Generator: Adobe Illustrator 23.0.3, SVG Export Plug-In . SVG Version: 6.00 Build 0)  -->
<svg version="1.1" id="Layer_1" xmlns="http://www.w3.org/2000/svg" xmlns:xlink="http://www.w3.org/1999/xlink" x="0px" y="0px"
	 viewBox="0 0 200 200" style="enable-background:new 0 0 200 200;" xml:space="preserve">
<style type="text/css">
	.st0{fill:#3E6767;}
</style>
<path class="st0" d="M177.92,146.68c0.04-0.07,0.06-0.15,0.09-0.22c0.08-0.17,0.16-0.34,0.22-0.52c0.06-0.15,0.1-0.31,0.14-0.47
	c0.04-0.16,0.08-0.33,0.1-0.5c0.03-0.18,0.05-0.36,0.06-0.55c0-0.08,0.03-0.16,0.03-0.25c0-0.08-0.02-0.15-0.02-0.22
	c-0.01-0.18-0.03-0.36-0.05-0.54c-0.02-0.17-0.05-0.33-0.09-0.49c-0.04-0.16-0.09-0.31-0.14-0.46c-0.06-0.17-0.12-0.33-0.19-0.48
	c-0.07-0.15-0.15-0.28-0.23-0.42c-0.09-0.15-0.17-0.29-0.27-0.43c-0.1-0.13-0.2-0.26-0.32-0.38c-0.11-0.13-0.23-0.25-0.35-0.37
	c-0.12-0.11-0.24-0.21-0.37-0.31c-0.15-0.11-0.3-0.22-0.46-0.32c-0.06-0.04-0.11-0.09-0.18-0.12l-70.64-38.82
	c0.01-0.64-0.1-1.28-0.34-1.89v-5.38c0-1.56-0.7-3.04-1.91-4.02L83.76,73.84c1.13-7.73,7.81-13.69,15.85-13.69
	c8.83,0,16.02,7.19,16.02,16.02c0,2.87,2.32,5.19,5.19,5.19s5.19-2.32,5.19-5.19c0-14.56-11.84-26.4-26.4-26.4
	s-26.4,11.84-26.4,26.4c0,1.56,0.7,3.04,1.91,4.02l19.4,15.82V98l-71.1,41.71c-0.05,0.03-0.08,0.06-0.13,0.09
	c-0.16,0.1-0.3,0.21-0.45,0.33c-0.13,0.1-0.25,0.19-0.37,0.3c-0.12,0.12-0.23,0.25-0.34,0.37c-0.11,0.13-0.22,0.25-0.32,0.39
	c-0.1,0.14-0.18,0.29-0.26,0.43c-0.08,0.14-0.17,0.28-0.23,0.43c-0.07,0.16-0.12,0.32-0.18,0.48c-0.05,0.16-0.11,0.31-0.15,0.47
	c-0.04,0.15-0.05,0.31-0.08,0.47c-0.03,0.18-0.05,0.37-0.06,0.55c0,0.05-0.02,0.1-0.02,0.15c0,0.1,0.02,0.2,0.03,0.3
	c0.01,0.19,0.02,0.37,0.06,0.56c0.03,0.17,0.07,0.33,0.11,0.49c0.04,0.16,0.09,0.32,0.15,0.48c0.07,0.18,0.15,0.35,0.24,0.52
	c0.05,0.09,0.07,0.19,0.13,0.28c0.02,0.04,0.05,0.06,0.08,0.1c0.22,0.35,0.47,0.68,0.76,0.97c0.04,0.04,0.1,0.07,0.14,0.12
	c0.25,0.23,0.53,0.44,0.83,0.62c0.1,0.06,0.21,0.12,0.32,0.17c0.27,0.14,0.55,0.25,0.84,0.34c0.1,0.03,0.2,0.07,0.3,0.09
	c0.39,0.09,0.79,0.16,1.21,0.16h147.32c0,0,0.01,0,0.01,0c0.01,0,0.02,0,0.04,0c0.41,0,0.81-0.06,1.19-0.16
	c0.11-0.03,0.22-0.07,0.33-0.1c0.3-0.09,0.58-0.21,0.85-0.35c0.1-0.05,0.21-0.1,0.31-0.17c0.35-0.22,0.68-0.46,0.97-0.75
	c0.03-0.03,0.04-0.06,0.07-0.08c0.27-0.28,0.5-0.6,0.7-0.94C177.85,146.76,177.9,146.73,177.92,146.68z M97.39,108.35l55.76,30.65
	H45.15L97.39,108.35z"/>
</svg>
