<?xml version="1.0" encoding="utf-8"?>
<!-- Generator: Adobe Illustrator 23.0.3, SVG Export Plug-In . SVG Version: 6.00 Build 0)  -->
<svg version="1.1" id="Layer_1" xmlns="http://www.w3.org/2000/svg" xmlns:xlink="http://www.w3.org/1999/xlink" x="0px" y="0px"
	 viewBox="0 0 200 200" style="enable-background:new 0 0 200 200;" xml:space="preserve">
<style type="text/css">
	.st0{fill:#3E6767;}
</style>
<g>
	<polygon class="st0" points="73.05,50.04 100.35,84.29 127.66,50.04 	"/>
	<path class="st0" d="M156.29,169.57h-8.28v-22.22c0-0.02-0.01-0.04-0.01-0.06c0-0.22-0.04-0.44-0.07-0.66
		c-0.02-0.12-0.02-0.25-0.05-0.38c-0.04-0.17-0.1-0.33-0.15-0.5c-0.05-0.16-0.09-0.33-0.16-0.49c-0.05-0.12-0.12-0.23-0.18-0.34
		c-0.1-0.19-0.2-0.39-0.32-0.57c-0.01-0.02-0.02-0.04-0.03-0.05L114.4,98.28l32.53-42.56c0.03-0.04,0.05-0.09,0.08-0.13
		c0.11-0.16,0.21-0.32,0.3-0.49c0.08-0.14,0.16-0.27,0.22-0.41c0.07-0.16,0.12-0.32,0.18-0.49c0.06-0.17,0.12-0.33,0.15-0.5
		c0.04-0.15,0.05-0.31,0.07-0.46c0.03-0.19,0.05-0.38,0.06-0.57c0-0.05,0.01-0.1,0.01-0.15V30.31h8.04c2.91,0,5.27-2.36,5.27-5.27
		s-2.36-5.27-5.27-5.27H44.17c-2.91,0-5.27,2.36-5.27,5.27s2.36,5.27,5.27,5.27h8.1v22.25c0,0.06,0.01,0.11,0.02,0.16
		c0.01,0.19,0.03,0.38,0.06,0.57c0.02,0.16,0.04,0.32,0.08,0.47c0.04,0.17,0.1,0.33,0.15,0.49c0.06,0.17,0.11,0.33,0.18,0.49
		c0.06,0.14,0.15,0.28,0.22,0.41c0.1,0.17,0.19,0.33,0.3,0.49c0.03,0.04,0.05,0.09,0.08,0.14l32.87,42.54l-32.98,45.99
		c-0.01,0.02-0.02,0.04-0.03,0.06c-0.12,0.18-0.22,0.37-0.32,0.56c-0.06,0.12-0.14,0.23-0.19,0.35c-0.07,0.16-0.11,0.33-0.17,0.5
		c-0.05,0.16-0.12,0.33-0.15,0.49c-0.03,0.13-0.03,0.27-0.05,0.4c-0.03,0.21-0.06,0.42-0.06,0.63c0,0.02-0.01,0.05-0.01,0.07v22.19
		h-7.86c-2.91,0-5.27,2.36-5.27,5.27c0,2.91,2.36,5.27,5.27,5.27h12.84c0.1,0.01,0.19,0.03,0.29,0.03c0.1,0,0.19-0.02,0.29-0.03
		h98.47c2.91,0,5.27-2.36,5.27-5.27C161.56,171.92,159.2,169.57,156.29,169.57z M137.48,169.57h-27.15l-9.98-12.51l-9.98,12.51
		H62.81v-20.49l34.28-47.8c0.05-0.07,0.08-0.15,0.13-0.23c0.1-0.16,0.2-0.32,0.28-0.49c0.07-0.15,0.14-0.3,0.2-0.45
		c0.06-0.16,0.12-0.32,0.16-0.49c0.05-0.17,0.08-0.33,0.11-0.5c0.03-0.16,0.05-0.33,0.06-0.49c0.01-0.17,0.02-0.34,0.02-0.51
		c0-0.17-0.02-0.34-0.03-0.51c-0.02-0.16-0.04-0.33-0.08-0.49c-0.04-0.17-0.08-0.33-0.13-0.5c-0.05-0.16-0.11-0.32-0.18-0.48
		c-0.06-0.15-0.13-0.3-0.21-0.44c-0.09-0.17-0.19-0.33-0.3-0.48c-0.05-0.07-0.08-0.15-0.14-0.22L62.81,50.76V30.31h74.67v20.43
		l-33.81,44.23c-0.05,0.07-0.08,0.14-0.13,0.2c-0.11,0.16-0.21,0.32-0.3,0.48c-0.08,0.15-0.15,0.29-0.22,0.44
		c-0.07,0.16-0.13,0.32-0.18,0.48c-0.05,0.17-0.1,0.33-0.13,0.5c-0.03,0.16-0.06,0.32-0.08,0.49c-0.02,0.17-0.03,0.34-0.04,0.51
		c0,0.17,0.01,0.34,0.02,0.51c0.01,0.16,0.03,0.33,0.06,0.49c0.03,0.17,0.07,0.34,0.12,0.5c0.05,0.16,0.1,0.32,0.16,0.48
		c0.06,0.15,0.13,0.3,0.2,0.45c0.08,0.17,0.17,0.33,0.28,0.49c0.04,0.07,0.07,0.15,0.12,0.21l33.92,47.81V169.57z"/>
</g>
</svg>
