<?xml version="1.0" encoding="utf-8"?>
<!-- Generator: Adobe Illustrator 23.0.3, SVG Export Plug-In . SVG Version: 6.00 Build 0)  -->
<svg version="1.1" id="Layer_1" xmlns="http://www.w3.org/2000/svg" xmlns:xlink="http://www.w3.org/1999/xlink" x="0px" y="0px"
	 viewBox="0 0 200 200" style="enable-background:new 0 0 200 200;" xml:space="preserve">
<style type="text/css">
	.st0{fill:#3E6767;}
</style>
<g>
	<g>
		<path class="st0" d="M46.67,155.74c-0.7,0-1.39-0.27-1.93-0.8c-1.06-1.06-1.06-2.79,0-3.85l56.2-56.2c1.06-1.06,2.79-1.06,3.85,0
			c1.06,1.06,1.06,2.79,0,3.85l-56.2,56.2C48.07,155.47,47.37,155.74,46.67,155.74z"/>
	</g>
	<g>
		<circle class="st0" cx="34.93" cy="165.23" r="4.7"/>
	</g>
	<path class="st0" d="M140.19,99.36c-10.74,0-21.35-4.42-29.16-12.94c-13.31-14.52-13.67-37.57-0.82-52.47
		c12.16-14.11,32.12-17.89,48.52-9.21c0.76,0.4,1.29,1.15,1.42,2c0.13,0.86-0.16,1.72-0.77,2.33l-28,28l31.31,31.31
		c0.58,0.58,0.86,1.38,0.79,2.19c-0.08,0.81-0.52,1.54-1.19,2C155.5,97.13,147.81,99.36,140.19,99.36z M140.21,25.57
		c-9.67,0-19.15,4.14-25.87,11.94c-11.07,12.84-10.76,32.71,0.71,45.23c10.75,11.73,27.66,14.45,41.34,7.04L125.61,59
		c-0.51-0.51-0.8-1.2-0.8-1.93s0.29-1.42,0.8-1.93l27.17-27.17C148.69,26.36,144.43,25.57,140.21,25.57z"/>
	<g>
		<path class="st0" d="M129.2,83.73c-0.7,0-1.39-0.27-1.93-0.8l-10.25-10.24c-1.06-1.06-1.06-2.79,0-3.85
			c1.06-1.06,2.79-1.06,3.85,0l10.25,10.24c1.06,1.06,1.06,2.79,0,3.85C130.59,83.46,129.9,83.73,129.2,83.73z"/>
	</g>
	<path class="st0" d="M175.24,41.24c-0.4-0.76-1.15-1.29-2-1.42c-0.85-0.13-1.72,0.16-2.33,0.77L142.9,68.58l-11.51-11.51l28-28
		c0.61-0.61,0.9-1.48,0.77-2.33c-0.13-0.86-0.66-1.6-1.42-2c-16.41-8.68-36.36-4.9-48.52,9.21c-9.74,11.3-11.87,27.27-6.54,40.67
		l-79.02,79.02c-5.9,5.9-5.9,15.5,0,21.4c2.86,2.86,6.66,4.43,10.7,4.43c4.04,0,7.84-1.57,10.7-4.43l78.81-78.81
		c4.87,2.07,10.09,3.14,15.34,3.13c7.56,0,15.19-2.2,21.93-6.69c0.06-0.03,0.12-0.05,0.18-0.09c2.15-1.45,4.14-3.08,5.92-4.86
		C180.59,75.36,183.4,56.68,175.24,41.24z M42.19,171.18c-1.83,1.83-4.26,2.84-6.85,2.84c-2.58,0-5.02-1.01-6.84-2.84
		c-3.77-3.78-3.77-9.92,0-13.69l77.7-77.7c1.36,2.34,2.96,4.58,4.84,6.63c2.63,2.87,5.57,5.26,8.73,7.18L42.19,171.18z
		 M129.07,92.01c-1.82-0.64-3.6-1.44-5.31-2.39c-3.17-1.76-6.12-4.05-8.71-6.87c-1.95-2.12-3.55-4.47-4.85-6.95
		c-0.92-1.74-1.67-3.55-2.27-5.41c-3.56-11.07-1.47-23.74,6.4-32.87c6.72-7.8,16.2-11.94,25.87-11.94c4.22,0,8.49,0.79,12.57,2.41
		l-27.17,27.17c-0.51,0.51-0.8,1.2-0.8,1.93s0.29,1.42,0.8,1.93l15.34,15.34c0.01,0.01,0.02,0.02,0.03,0.03l15.41,15.41
		C147.78,94.44,137.9,95.09,129.07,92.01z M164.38,83.86c-1.02,1.02-2.13,1.99-3.3,2.89l-14.32-14.32l25.24-25.24
		C177,59.77,174.14,74.1,164.38,83.86z"/>
</g>
</svg>
