<?xml version="1.0" encoding="utf-8"?>
<!-- Generator: Adobe Illustrator 23.0.3, SVG Export Plug-In . SVG Version: 6.00 Build 0)  -->
<svg version="1.1" id="Layer_1" xmlns="http://www.w3.org/2000/svg" xmlns:xlink="http://www.w3.org/1999/xlink" x="0px" y="0px"
	 viewBox="0 0 200 200" style="enable-background:new 0 0 200 200;" xml:space="preserve">
<style type="text/css">
	.st0{fill:#3E6767;}
</style>
<g>
	<g>
		<path class="st0" d="M99.71,180.05c-44.2,0-80.16-35.96-80.16-80.16c0-44.2,35.96-80.16,80.16-80.16
			c44.2,0,80.16,35.96,80.16,80.16C179.87,144.09,143.91,180.05,99.71,180.05z M99.71,30.28c-38.38,0-69.61,31.23-69.61,69.61
			s31.23,69.61,69.61,69.61s69.61-31.23,69.61-69.61S138.09,30.28,99.71,30.28z"/>
	</g>
	<path class="st0" d="M146.98,65.15c-2.06-2.06-5.4-2.06-7.46,0l-57.98,57.98L59.9,101.49c-2.06-2.06-5.4-2.06-7.46,0
		c-2.06,2.06-2.06,5.4,0,7.46l25.08,25.08c1.03,1.03,2.38,1.55,3.73,1.55c0.1,0,0.2-0.02,0.29-0.03c0.1,0.01,0.2,0.03,0.29,0.03
		c1.35,0,2.7-0.52,3.73-1.55l61.42-61.42C149.04,70.55,149.04,67.21,146.98,65.15z"/>
</g>
</svg>
