<?xml version="1.0" encoding="utf-8"?>
<!-- Generator: Adobe Illustrator 23.0.3, SVG Export Plug-In . SVG Version: 6.00 Build 0)  -->
<svg version="1.1" id="Layer_1" xmlns="http://www.w3.org/2000/svg" xmlns:xlink="http://www.w3.org/1999/xlink" x="0px" y="0px"
	 viewBox="0 0 200 200" style="enable-background:new 0 0 200 200;" xml:space="preserve">
<style type="text/css">
	.st0{fill:#3E6767;}
</style>
<g>
	<g>
		<path class="st0" d="M79.11,156.09c-1.4,3.2-4.4,3.43-6.87,3.43c-3.07,0-5.8-3.02-6.94-7.54l-3.43-17.17
			c-0.32-1.6-1.73-2.76-3.37-2.76c-3.43,0-3.43,0-3.45-6.58c1.08-12.92,4.12-17.72,9.02-21.64c0.23-0.18,0.43-0.39,0.6-0.62
			c0.08-0.1,0.17-0.21,0.25-0.31c2.22,1.05,4.68,1.69,7.31,1.69c2.45,0,4.76-0.54,6.87-1.46l0-8.05c-1.82,1.64-4.23,2.65-6.87,2.65
			c-5.68,0-10.3-4.62-10.3-10.3s4.62-10.3,10.3-10.3c4.48,0,8.31,2.88,9.72,6.88l7-0.01c-1.73-7.65-8.54-13.74-16.72-13.74
			c-9.48,0-17.17,7.69-17.17,17.17c0,4.37,1.68,8.31,4.37,11.34c-6.98,5.74-10.14,13.13-11.24,26.43c0,5.78,0,12.25,7.44,13.52
			l2.96,14.79c1.96,7.84,7.31,12.91,13.63,12.91c2.5,0,4.83-0.81,6.87-2.27L79.11,156.09z"/>
		<path class="st0" d="M120.32,164.13c2.04,1.45,4.37,2.26,6.86,2.26c6.32,0,11.68-5.06,13.67-13.06l2.93-14.63
			c7.44-1.27,7.44-7.77,7.43-13.8c-1.09-13.02-4.25-20.41-11.23-26.15c2.69-3.03,4.37-6.97,4.37-11.34
			c0-9.48-7.69-17.17-17.17-17.17c-8.17,0-14.98,6.09-16.72,13.74l7,0c1.42-4,5.24-6.87,9.71-6.87c5.68,0,10.3,4.62,10.3,10.3
			s-4.62,10.3-10.3,10.3c-2.64,0-5.05-1-6.87-2.65l0.02,8.06c2.1,0.92,4.41,1.46,6.85,1.46c2.63,0,5.08-0.64,7.31-1.69
			c0.08,0.11,0.17,0.21,0.25,0.32c0.17,0.23,0.38,0.44,0.6,0.62c4.9,3.92,7.95,8.72,9.01,21.36c0,6.87,0,6.87-3.44,6.87
			c-1.64,0-3.05,1.16-3.37,2.76l-3.4,17.01c-1.17,4.68-3.91,7.7-6.97,7.7c-2,0-5.5-1.28-6.87-3.43L120.32,164.13z"/>
		<path class="st0" d="M123.74,138.63c-1.09-13.02-4.25-20.41-11.23-26.15c2.69-3.03,4.37-6.97,4.37-11.34
			c0-9.48-7.69-17.17-17.17-17.17s-17.17,7.69-17.17,17.17c0,4.37,1.68,8.31,4.37,11.34c-6.98,5.74-10.14,13.13-11.24,26.43
			c0,5.78,0,12.25,7.44,13.52l2.96,14.79c1.96,7.84,7.31,12.91,13.63,12.91h0c6.32,0,11.68-5.06,13.67-13.06l2.92-14.63
			C123.76,151.16,123.76,144.67,123.74,138.63z M99.71,90.84c5.68,0,10.3,4.62,10.3,10.3s-4.62,10.3-10.3,10.3
			c-5.68,0-10.3-4.62-10.3-10.3S94.03,90.84,99.71,90.84z M113.45,145.79c-1.64,0-3.05,1.16-3.37,2.76l-3.39,17.01
			c-1.17,4.68-3.91,7.7-6.98,7.7c-3.07,0-5.8-3.02-6.94-7.54l-3.43-17.17c-0.32-1.6-1.73-2.76-3.37-2.76c-3.43,0-3.43,0-3.45-6.58
			c1.08-12.92,4.12-17.72,9.03-21.64c0.22-0.18,0.43-0.39,0.6-0.62c0.08-0.1,0.17-0.21,0.25-0.32c0.69,0.33,1.41,0.58,2.15,0.81
			l2.87,4.31l-4.58,11.45l6.87,9.16l6.87-9.16L102,121.75l2.87-4.31c0.74-0.23,1.46-0.49,2.15-0.81c0.08,0.11,0.17,0.21,0.25,0.32
			c0.17,0.23,0.38,0.44,0.6,0.62c4.9,3.92,7.95,8.72,9.01,21.36C116.89,145.79,116.89,145.79,113.45,145.79z"/>
	</g>
	<path class="st0" d="M111.24,49.24c-1.59-1.59-4.17-1.59-5.76,0l-1.69,1.69l0-14.62V24.08c0-5.43-8.15-5.43-8.15,0l0,12.23l0,14.62
		l-1.69-1.69c-1.59-1.59-4.17-1.59-5.76,0c-1.59,1.59-1.59,4.17,0,5.76l8.65,8.65c0,0,0,0.01,0.01,0.01c0,0,0.01,0,0.01,0.01l0,0
		c0,0.01,0.01,0.01,0.01,0.01h0c0.72,0.7,1.64,1.09,2.57,1.15l0,0l0,0c0.26,0.02,0.52,0.01,0.78-0.02c0,0,0,0,0,0
		c0.78-0.1,1.53-0.42,2.16-0.97c0.08-0.07,0.15-0.14,0.22-0.21l8.62-8.62c0.8-0.8,1.19-1.84,1.19-2.88
		C112.43,51.08,112.03,50.03,111.24,49.24z"/>
</g>
</svg>
