<?xml version="1.0" encoding="utf-8"?>
<!-- Generator: Adobe Illustrator 23.0.3, SVG Export Plug-In . SVG Version: 6.00 Build 0)  -->
<svg version="1.1" id="Layer_1" xmlns="http://www.w3.org/2000/svg" xmlns:xlink="http://www.w3.org/1999/xlink" x="0px" y="0px"
	 viewBox="0 0 200 200" style="enable-background:new 0 0 200 200;" xml:space="preserve">
<style type="text/css">
	.st0{fill:#3E6767;}
</style>
<g>
	<path class="st0" d="M65.02,152.05c1.77,0,3.21-1.44,3.21-3.21V67.85c0-1.77-1.44-3.21-3.21-3.21c-1.77,0-3.21,1.44-3.21,3.21
		v80.99C61.81,150.61,63.25,152.05,65.02,152.05z"/>
	<path class="st0" d="M88.57,152.05c1.77,0,3.21-1.44,3.21-3.21V67.85c0-1.77-1.44-3.21-3.21-3.21c-1.77,0-3.21,1.44-3.21,3.21
		v80.99C85.36,150.61,86.8,152.05,88.57,152.05z"/>
	<path class="st0" d="M112.12,152.05c1.77,0,3.21-1.44,3.21-3.21V67.85c0-1.77-1.44-3.21-3.21-3.21c-1.77,0-3.21,1.44-3.21,3.21
		v80.99C108.91,150.61,110.35,152.05,112.12,152.05z"/>
	<path class="st0" d="M135.67,152.05c1.77,0,3.21-1.44,3.21-3.21V67.85c0-1.77-1.44-3.21-3.21-3.21s-3.21,1.44-3.21,3.21v80.99
		C132.46,150.61,133.89,152.05,135.67,152.05z"/>
	<path class="st0" d="M173.29,38.41h-6.16c-0.11-3.45-2.92-6.22-6.4-6.22H119c0.03-0.24,0.07-0.48,0.07-0.73
		c0-3.54-2.87-6.42-6.42-6.42H87.73c-3.54,0-6.42,2.87-6.42,6.42c0,0.25,0.05,0.49,0.07,0.73h-40.6c-3.48,0-6.29,2.77-6.4,6.22h-7.3
		c-3.54,0-6.42,2.87-6.42,6.42c0,3.54,2.87,6.42,6.42,6.42h6.14v116.34c0,3.54,2.87,6.42,6.42,6.42h121.08
		c3.54,0,6.42-2.87,6.42-6.42V51.24h6.14c3.54,0,6.42-2.87,6.42-6.42C179.71,41.28,176.84,38.41,173.29,38.41z M154.32,161.17H46.07
		V51.24h108.25V161.17z"/>
</g>
</svg>
