<?xml version="1.0" encoding="utf-8"?>
<!-- Generator: Adobe Illustrator 23.0.3, SVG Export Plug-In . SVG Version: 6.00 Build 0)  -->
<svg version="1.1" id="Layer_1" xmlns="http://www.w3.org/2000/svg" xmlns:xlink="http://www.w3.org/1999/xlink" x="0px" y="0px"
	 viewBox="0 0 200 200" style="enable-background:new 0 0 200 200;" xml:space="preserve">
<style type="text/css">
	.st0{fill:#3E6767;}
</style>
<g>
	<path class="st0" d="M100,179.48c-44.04,0-79.87-35.83-79.87-79.87c0-44.04,35.83-79.87,79.87-79.87
		c44.04,0,79.87,35.83,79.87,79.87C179.87,143.65,144.04,179.48,100,179.48z M100,30.25c-38.24,0-69.36,31.11-69.36,69.36
		c0,38.24,31.11,69.36,69.36,69.36s69.36-31.11,69.36-69.36C169.36,61.36,138.24,30.25,100,30.25z"/>
</g>
<g>
	<path class="st0" d="M132.06,68.11c-1.91-1.91-5.01-1.91-6.93,0l-53.85,53.85l-20.09-20.1c-1.91-1.91-5.02-1.91-6.93,0
		c-1.91,1.91-1.91,5.02,0,6.93l23.29,23.29c0.96,0.96,2.21,1.44,3.46,1.44c0.09,0,0.18-0.02,0.27-0.03
		c0.09,0.01,0.18,0.03,0.27,0.03c1.25,0,2.51-0.48,3.46-1.44l57.04-57.04C133.97,73.12,133.97,70.02,132.06,68.11z"/>
	<g>
		<path class="st0" d="M155.74,67.75c-1.91-1.91-5.01-1.91-6.93,0L94.97,121.6l-4.15-4.15l-6.93,6.93l7.34,7.34
			c0.96,0.96,2.21,1.44,3.46,1.44c0.09,0,0.18-0.02,0.27-0.03c0.09,0.01,0.18,0.03,0.27,0.03c1.25,0,2.51-0.48,3.46-1.44
			l57.04-57.04C157.65,72.77,157.65,69.67,155.74,67.75z"/>
	</g>
</g>
</svg>
