<?xml version="1.0" encoding="utf-8"?>
<!-- Generator: Adobe Illustrator 23.0.3, SVG Export Plug-In . SVG Version: 6.00 Build 0)  -->
<svg version="1.1" id="Layer_1" xmlns="http://www.w3.org/2000/svg" xmlns:xlink="http://www.w3.org/1999/xlink" x="0px" y="0px"
	 viewBox="0 0 200 200" style="enable-background:new 0 0 200 200;" xml:space="preserve">
<style type="text/css">
	.st0{fill:#3E6767;}
</style>
<g>
	<g>
		<path class="st0" d="M113.37,109.73c2.8-3.15,4.55-7.26,4.55-11.8c0-9.87-8-17.87-17.87-17.87s-17.87,8-17.87,17.87
			c0,4.55,1.75,8.65,4.55,11.8c-7.26,5.98-10.55,13.66-11.7,27.51c0,6.01,0,12.75,7.75,14.07l3.08,15.39
			c2.04,8.16,7.61,13.43,14.19,13.43c6.58,0,12.15-5.27,14.23-13.59l3.05-15.23c7.75-1.32,7.75-8.08,7.73-14.36
			C123.93,123.39,120.64,115.71,113.37,109.73z M100.05,87.2c5.91,0,10.72,4.81,10.72,10.72c0,5.91-4.81,10.72-10.72,10.72
			c-5.91,0-10.72-4.81-10.72-10.72C89.33,92.01,94.14,87.2,100.05,87.2z M114.34,144.39c-1.7,0-3.17,1.2-3.5,2.87l-3.54,17.71
			c-1.22,4.87-4.07,8.01-7.26,8.01s-6.04-3.14-7.22-7.85l-3.57-17.87c-0.33-1.67-1.8-2.87-3.5-2.87c-3.57,0-3.57,0-3.59-6.85
			c1.12-13.45,4.29-18.45,9.39-22.52c0.24-0.19,0.45-0.41,0.63-0.65c0.08-0.11,0.17-0.22,0.26-0.33c0.72,0.34,1.47,0.6,2.23,0.84
			l2.99,4.49l-4.77,11.91l7.15,9.53l7.15-9.53l-4.77-11.91l2.99-4.49c0.77-0.24,1.52-0.51,2.23-0.84c0.08,0.11,0.18,0.22,0.26,0.33
			c0.18,0.24,0.39,0.46,0.63,0.65c5.1,4.08,8.27,9.07,9.38,22.23C117.92,144.39,117.92,144.39,114.34,144.39z"/>
	</g>
	<path class="st0" d="M111.98,49.98c-1.65-1.65-4.32-1.65-5.97,0l-1.75,1.75l0-15.14V23.92c0-5.63-8.44-5.63-8.44,0l0,12.67l0,15.14
		l-1.75-1.75c-1.65-1.65-4.32-1.65-5.97,0c-1.65,1.65-1.65,4.32,0,5.97l8.96,8.96c0,0,0,0.01,0.01,0.01c0,0,0.01,0,0.01,0.01l0,0
		c0,0.01,0.01,0.01,0.01,0.01h0c0.75,0.73,1.69,1.13,2.66,1.19l0,0l0,0c0.27,0.02,0.54,0.01,0.81-0.02c0,0,0,0,0,0
		c0.81-0.1,1.59-0.44,2.24-1.01c0.08-0.07,0.16-0.14,0.23-0.22l8.93-8.93c0.82-0.82,1.24-1.9,1.24-2.98
		C113.22,51.88,112.81,50.8,111.98,49.98z"/>
</g>
</svg>
