<?xml version="1.0" encoding="utf-8"?>
<!-- Generator: Adobe Illustrator 23.0.3, SVG Export Plug-In . SVG Version: 6.00 Build 0)  -->
<svg version="1.1" id="Layer_1" xmlns="http://www.w3.org/2000/svg" xmlns:xlink="http://www.w3.org/1999/xlink" x="0px" y="0px"
	 viewBox="0 0 200 200" style="enable-background:new 0 0 200 200;" xml:space="preserve">
<style type="text/css">
	.st0{fill:#3E6767;}
</style>
<path class="st0" d="M165.28,115.19L165.28,115.19c0,0-0.99-0.47-2.86-0.32c-1.1,0.05-2.16,0.3-3.12,0.71
	c-4.32,1.56-10.83,6.12-19.05,18.41V40.55c0-5-4.06-9.06-9.05-9.06c-5,0-9.05,4.06-9.05,9.06v45.71c-1.27-0.75-2.58-1.45-3.93-2.08
	V28.74c0-5-4.05-9.05-9.05-9.05c-5,0-9.05,4.05-9.05,9.05V80.1c-0.13,0-0.26-0.01-0.4-0.01c-1.32,0-2.64,0.06-3.93,0.18V35.83
	c0-5-4.05-9.05-9.05-9.05c-5,0-9.06,4.06-9.06,9.05v50.2c-1.28,0.75-2.52,1.56-3.72,2.43V51.66c0-5-4.05-9.05-9.05-9.05
	c-5,0-9.05,4.06-9.05,9.05v70.96c-0.01,0.45-0.02,0.9-0.02,1.35c0,0.45,0.01,0.91,0.02,1.35v10.05v0.41v0.75
	c0.41,23.88,19.88,43.12,43.85,43.12c0.2,0,0.4-0.01,0.6-0.02l-0.01,0.01c19.6,1.75,33.65-10.14,45.94-22.82
	c11.14-11.5,21.45-23.8,21.45-23.8l2.35-3.56c0.26-0.34,0.49-0.69,0.71-1.07l0.05-0.07v-0.01c0.27-0.51,0.51-1.03,0.69-1.58
	c0.28-0.88,0.43-1.82,0.43-2.8C171.93,119.77,169.12,116.26,165.28,115.19z M128.17,157.81c-0.97,0.97-2.25,1.46-3.53,1.46
	s-2.55-0.49-3.53-1.46l-21.09-21.08l-21.3,21.3c-0.97,0.97-2.25,1.46-3.53,1.46c-1.28,0-2.55-0.49-3.53-1.46
	c-1.95-1.95-1.95-5.11,0-7.06l21.3-21.3l-21.19-21.19c-1.95-1.95-1.95-5.11,0-7.06c1.95-1.95,5.11-1.95,7.06,0l21.19,21.19
	l20.98-20.98c1.95-1.95,5.11-1.95,7.06,0c1.95,1.95,1.95,5.11,0,7.06l-20.98,20.98l21.09,21.08
	C130.12,152.7,130.12,155.86,128.17,157.81z"/>
</svg>
