<?xml version="1.0" encoding="utf-8"?>
<!-- Generator: Adobe Illustrator 23.0.3, SVG Export Plug-In . SVG Version: 6.00 Build 0)  -->
<svg version="1.1" id="Layer_1" xmlns="http://www.w3.org/2000/svg" xmlns:xlink="http://www.w3.org/1999/xlink" x="0px" y="0px"
	 viewBox="0 0 200 200" style="enable-background:new 0 0 200 200;" xml:space="preserve">
<style type="text/css">
	.st0{fill:none;}
	.st1{fill:#3E6767;}
</style>
<path class="st0" d="M99.5,39.46c-33.04,0-59.91,26.88-59.91,59.92s26.88,59.91,59.91,59.91c33.04,0,59.92-26.88,59.92-59.91
	S132.54,39.46,99.5,39.46z M99.5,153.98c-30.11,0-54.61-24.5-54.61-54.61s24.5-54.61,54.61-54.61c30.11,0,54.61,24.5,54.61,54.61
	S129.61,153.98,99.5,153.98z"/>
<path class="st1" d="M100.04,45.17c-30.11,0-54.61,24.5-54.61,54.61s24.5,54.61,54.61,54.61c30.11,0,54.61-24.5,54.61-54.61
	S130.16,45.17,100.04,45.17z M100.04,147.36c-26.28,0-47.58-21.3-47.58-47.58s21.3-47.58,47.58-47.58
	c26.28,0,47.58,21.3,47.58,47.58S126.32,147.36,100.04,147.36z"/>
<path class="st1" d="M162.69,116.57h0.65c6.56-6.56,10.23-10.23,16.79-16.79c-6.56-6.56-10.23-10.23-16.79-16.79h-0.65l0.56-0.33
	c2.4-8.96,3.74-13.98,6.14-22.93v0c-8.96-2.4-13.98-3.74-22.93-6.14l-0.56,0.33l0.33-0.56c-2.4-8.96-3.74-13.98-6.14-22.93l0,0
	c-8.96,2.4-13.98,3.74-22.93,6.14l-0.33,0.56v-0.65c-6.56-6.56-10.23-10.23-16.79-16.79c-6.56,6.56-10.23,10.23-16.79,16.79v0.65
	l-0.33-0.56c-8.96-2.4-13.98-3.74-22.93-6.14v0c-2.4,8.96-3.74,13.98-6.14,22.93l0.33,0.56l-0.56-0.33
	c-8.96,2.4-13.98,3.74-22.93,6.14v0c2.4,8.96,3.74,13.98,6.14,22.93L37.39,83h-0.65c-6.56,6.56-10.23,10.23-16.79,16.79
	c6.56,6.56,10.23,10.23,16.79,16.79h0.65l-0.56,0.33c-2.4,8.96-3.74,13.98-6.14,22.93c8.96,2.4,13.98,3.74,22.93,6.14l0.56-0.33
	l-0.33,0.56c2.4,8.96,3.74,13.98,6.14,22.93c8.96-2.4,13.98-3.74,22.93-6.14l0.33-0.56v0.65c6.56,6.56,10.23,10.23,16.79,16.79
	c6.56-6.56,10.23-10.23,16.79-16.79v-0.65l0.33,0.56c8.96,2.4,13.98,3.74,22.93,6.14h0c2.4-8.96,3.74-13.98,6.14-22.93l-0.33-0.56
	l0.56,0.33c8.96-2.4,13.98-3.74,22.93-6.14c-2.4-8.96-3.74-13.98-6.14-22.93L162.69,116.57z M100.04,159.7
	c-33.04,0-59.91-26.88-59.91-59.91s26.88-59.92,59.91-59.92c33.04,0,59.92,26.88,59.92,59.92S133.08,159.7,100.04,159.7z"/>
</svg>
